<?xml version="1.0" encoding="iso-8859-1"?>
<!-- Generator: Adobe Illustrator 19.0.0, SVG Export Plug-In . SVG Version: 6.00 Build 0)  -->
<svg version="1.1" id="Layer_1" xmlns="http://www.w3.org/2000/svg" xmlns:xlink="http://www.w3.org/1999/xlink" x="0px" y="0px"
	 viewBox="0 0 512.002 512.002" style="enable-background:new 0 0 512.002 512.002;" xml:space="preserve">
<g>
	<g>
		<path d="M466.593,365.232h-62.871c-0.004,0-0.008,0-0.011,0H349.32c-0.003,0-0.008,0-0.011,0h-54.381c-0.01,0-0.018,0-0.028,0
			h-48.151l10.63-139.168h2.57c14.09,0,25.554-11.464,25.554-25.556v-5.823c0-12.64-9.227-23.159-21.297-25.193v-27.218
			c0-4.466-3.619-8.084-8.084-8.084h-42.169L253.14,20.122c1.451-4.222-0.795-8.822-5.019-10.271l-27.39-9.411
			c-2.028-0.697-4.249-0.56-6.176,0.382c-1.926,0.941-3.4,2.608-4.097,4.637l-44.226,128.733H29.382
			c-4.465,0-8.084,3.618-8.084,8.084v27.218c-12.07,2.034-21.297,12.552-21.297,25.193v5.823c0,14.091,11.463,25.556,25.555,25.556
			h2.571l21.268,278.468c0.321,4.213,3.835,7.469,8.061,7.469h101.982h214.426c4.466,0,8.084-3.618,8.084-8.084
			c0-4.466-3.618-8.084-8.084-8.084H159.437c-16.941,0-30.723-13.782-30.723-30.723v-15.663c0-0.397,0.017-0.789,0.032-1.184
			c0-0.002,0-0.004,0-0.006c0.037-0.967,0.121-1.922,0.244-2.863c0.012-0.094,0.023-0.188,0.036-0.281
			c0.046-0.332,0.104-0.661,0.16-0.99c0.038-0.213,0.072-0.428,0.114-0.639c0.039-0.199,0.084-0.397,0.126-0.595
			c0.077-0.35,0.154-0.7,0.241-1.046c0.014-0.055,0.029-0.11,0.043-0.165c3.318-12.688,14.563-22.204,28.103-22.913
			c0.016-0.001,0.031-0.003,0.047-0.003c0.522-0.027,1.048-0.04,1.576-0.04h263.243c0.528,0,1.054,0.014,1.576,0.04
			c0.016,0.001,0.032,0.003,0.05,0.003c13.517,0.708,24.745,10.194,28.085,22.85c0.024,0.089,0.049,0.178,0.071,0.268
			c0.079,0.31,0.148,0.624,0.217,0.939c0.051,0.233,0.103,0.465,0.149,0.701c0.034,0.176,0.064,0.352,0.095,0.529
			c0.064,0.364,0.126,0.729,0.177,1.097c0.008,0.056,0.014,0.112,0.022,0.168c0.128,0.968,0.216,1.951,0.252,2.948
			c0,0.014,0.003,0.028,0.003,0.042c0.014,0.378,0.029,0.758,0.029,1.139v15.663c0,16.941-13.783,30.723-30.724,30.723h-22.231
			c-4.466,0-8.084,3.618-8.084,8.084c0,4.466,3.618,8.084,8.084,8.084h22.231c25.857,0,46.893-21.036,46.893-46.892v-9.174
			c23.653-1.541,42.429-21.261,42.429-45.296C512.001,385.602,491.632,365.232,466.593,365.232z M223.123,18.357l12.099,4.156
			l-38.365,111.677h-13.528L223.123,18.357z M37.466,150.359h134.536h30.624h45.411v18.773H37.466V150.359z M25.554,209.896
			c-5.174,0-9.385-4.211-9.385-9.387v-5.823c0-5.175,4.21-9.385,9.385-9.385h3.827H256.12h3.828c5.175,0,9.385,4.21,9.385,9.385
			v5.823c0,5.176-4.21,9.387-9.385,9.387h-10.06H35.616H25.554z M64.944,495.836v-0.005L46.337,252.2h139.759
			c4.465,0,8.084-3.618,8.084-8.084c0-4.466-3.62-8.084-8.084-8.084H45.102l-0.761-9.967h196.824l-0.761,9.967h-29.499
			c-4.465,0-8.084,3.619-8.084,8.084c0,4.466,3.62,8.084,8.084,8.084h28.263l-8.634,113.032h-44.408c-0.01,0-0.018,0-0.028,0
			h-70.579c-25.036,0-45.405,20.37-45.405,45.407c0,0.768,0.021,1.53,0.058,2.287c0.013,0.255,0.039,0.507,0.056,0.761
			c0.033,0.501,0.065,1.001,0.114,1.498c0.03,0.3,0.073,0.594,0.109,0.891c0.054,0.446,0.103,0.894,0.17,1.337
			c0.047,0.314,0.107,0.623,0.161,0.936c0.072,0.42,0.141,0.841,0.225,1.258c0.065,0.32,0.14,0.635,0.211,0.953
			c0.089,0.402,0.178,0.805,0.278,1.203c0.081,0.321,0.172,0.637,0.261,0.955c0.108,0.388,0.213,0.777,0.331,1.161
			c0.097,0.319,0.204,0.633,0.308,0.949c0.124,0.376,0.247,0.752,0.38,1.123c0.113,0.316,0.235,0.628,0.356,0.941
			c0.14,0.363,0.28,0.727,0.429,1.086c0.129,0.31,0.265,0.618,0.401,0.925c0.156,0.355,0.314,0.707,0.479,1.056
			c0.143,0.303,0.292,0.603,0.442,0.902c0.172,0.345,0.346,0.688,0.527,1.027c0.157,0.295,0.319,0.589,0.483,0.881
			c0.188,0.334,0.378,0.667,0.573,0.996c0.171,0.288,0.346,0.572,0.523,0.856c0.203,0.324,0.409,0.647,0.619,0.965
			c0.184,0.279,0.372,0.556,0.562,0.83c0.217,0.313,0.438,0.623,0.662,0.93c0.197,0.269,0.396,0.538,0.599,0.804
			c0.232,0.303,0.468,0.602,0.706,0.898c0.208,0.259,0.418,0.517,0.632,0.772c0.247,0.293,0.498,0.581,0.751,0.868
			c0.219,0.248,0.439,0.495,0.663,0.737c0.261,0.281,0.527,0.557,0.793,0.832c0.23,0.236,0.459,0.473,0.694,0.704
			c0.275,0.271,0.555,0.535,0.836,0.798c0.239,0.224,0.476,0.448,0.721,0.667c0.289,0.26,0.585,0.511,0.881,0.763
			c0.247,0.211,0.493,0.424,0.744,0.628c0.304,0.248,0.615,0.487,0.926,0.728c0.253,0.196,0.506,0.396,0.763,0.587
			c0.321,0.238,0.65,0.466,0.977,0.695c0.258,0.181,0.513,0.365,0.774,0.541c0.342,0.229,0.691,0.447,1.039,0.667
			c0.257,0.162,0.51,0.33,0.77,0.487c0.369,0.222,0.745,0.432,1.12,0.645c0.25,0.141,0.496,0.289,0.748,0.426
			c0.413,0.224,0.835,0.433,1.257,0.645c0.222,0.111,0.441,0.231,0.665,0.338c0.613,0.295,1.235,0.576,1.863,0.843
			c0.037,0.015,0.072,0.033,0.109,0.05c0.665,0.281,1.338,0.546,2.018,0.797c0.238,0.087,0.481,0.163,0.721,0.247
			c0.446,0.155,0.891,0.314,1.344,0.456c0.289,0.091,0.583,0.168,0.875,0.253c0.41,0.12,0.818,0.242,1.233,0.351
			c0.315,0.082,0.635,0.152,0.952,0.227c0.398,0.095,0.794,0.193,1.195,0.277c0.333,0.07,0.669,0.127,1.005,0.19
			c0.392,0.073,0.784,0.149,1.179,0.211c0.346,0.055,0.696,0.098,1.044,0.144c0.391,0.053,0.781,0.107,1.176,0.15
			c0.356,0.039,0.715,0.066,1.073,0.096c0.288,0.024,0.573,0.058,0.862,0.078v9.162c0,0.773,0.022,1.541,0.058,2.306
			c0.012,0.253,0.036,0.502,0.052,0.755c0.033,0.51,0.067,1.02,0.116,1.525c0.029,0.295,0.068,0.588,0.101,0.882
			c0.054,0.458,0.108,0.915,0.175,1.369c0.045,0.308,0.098,0.615,0.15,0.922c0.072,0.433,0.148,0.867,0.232,1.297
			c0.061,0.312,0.127,0.621,0.195,0.931c0.092,0.42,0.188,0.838,0.29,1.254c0.077,0.308,0.155,0.617,0.237,0.923
			c0.111,0.414,0.228,0.825,0.351,1.233c0.089,0.299,0.179,0.597,0.274,0.892c0.133,0.415,0.275,0.826,0.418,1.235
			c0.099,0.282,0.197,0.567,0.302,0.847c0.158,0.425,0.328,0.844,0.499,1.262c0.105,0.258,0.205,0.516,0.315,0.772
			c0.199,0.467,0.413,0.926,0.626,1.384c0.094,0.199,0.18,0.403,0.277,0.6c0.318,0.655,0.648,1.302,0.995,1.94
			c0.022,0.039,0.044,0.077,0.066,0.115c0.327,0.596,0.665,1.185,1.015,1.765c0.123,0.204,0.254,0.401,0.382,0.604
			c0.257,0.41,0.514,0.819,0.784,1.221c0.156,0.234,0.32,0.462,0.482,0.693c0.251,0.361,0.503,0.721,0.764,1.074
			c0.178,0.24,0.361,0.476,0.543,0.714c0.258,0.335,0.516,0.667,0.783,0.995c0.193,0.238,0.39,0.472,0.587,0.707
			c0.143,0.169,0.28,0.344,0.426,0.512H64.944z M468.579,439.809c-3.944-19.093-19.343-33.734-38.664-36.696
			c-0.067-0.011-0.135-0.021-0.202-0.031c-0.645-0.096-1.292-0.178-1.946-0.248c-0.154-0.017-0.307-0.036-0.461-0.051
			c-0.592-0.057-1.189-0.101-1.787-0.137c-0.182-0.011-0.362-0.027-0.545-0.036c-0.761-0.037-1.525-0.058-2.296-0.058H159.434
			c-0.771,0-1.535,0.022-2.296,0.058c-0.182,0.009-0.362,0.025-0.543,0.036c-0.599,0.036-1.196,0.079-1.79,0.137
			c-0.153,0.015-0.304,0.033-0.456,0.05c-0.655,0.07-1.306,0.153-1.954,0.249c-0.064,0.01-0.127,0.019-0.192,0.029
			c-19.322,2.96-34.722,17.597-38.668,36.688c-0.186-0.013-0.372-0.027-0.557-0.042c-0.213-0.018-0.427-0.036-0.638-0.058
			c-0.271-0.029-0.539-0.066-0.807-0.102c-0.208-0.028-0.417-0.055-0.623-0.088c-0.268-0.043-0.535-0.094-0.801-0.143
			c-0.203-0.038-0.407-0.073-0.609-0.116c-0.266-0.056-0.53-0.121-0.794-0.183c-0.197-0.047-0.396-0.092-0.591-0.142
			c-0.268-0.07-0.534-0.15-0.799-0.227c-0.187-0.055-0.374-0.105-0.558-0.163c-0.276-0.086-0.547-0.183-0.818-0.277
			c-0.17-0.059-0.344-0.114-0.513-0.177c-0.301-0.111-0.596-0.232-0.891-0.352c-0.136-0.055-0.274-0.106-0.409-0.163
			c-0.428-0.181-0.849-0.373-1.267-0.573c-0.07-0.033-0.137-0.071-0.206-0.106c-0.346-0.17-0.69-0.344-1.028-0.527
			c-0.154-0.084-0.304-0.175-0.457-0.261c-0.249-0.141-0.499-0.28-0.743-0.428c-0.17-0.102-0.335-0.212-0.502-0.319
			c-0.221-0.14-0.444-0.278-0.661-0.424c-0.172-0.115-0.34-0.237-0.509-0.357c-0.207-0.146-0.415-0.289-0.618-0.44
			c-0.17-0.126-0.336-0.259-0.503-0.388c-0.195-0.151-0.39-0.301-0.581-0.457c-0.167-0.137-0.331-0.278-0.495-0.419
			c-0.184-0.157-0.37-0.315-0.55-0.476c-0.162-0.146-0.32-0.295-0.479-0.444c-0.176-0.165-0.351-0.33-0.523-0.499
			c-0.156-0.153-0.307-0.31-0.46-0.468c-0.167-0.172-0.333-0.344-0.496-0.52c-0.149-0.162-0.295-0.327-0.441-0.492
			c-0.157-0.179-0.315-0.358-0.469-0.541c-0.141-0.168-0.28-0.34-0.418-0.511c-0.15-0.186-0.299-0.374-0.444-0.565
			c-0.134-0.175-0.264-0.351-0.394-0.529c-0.141-0.194-0.28-0.389-0.417-0.586c-0.125-0.181-0.248-0.363-0.37-0.547
			c-0.133-0.2-0.262-0.403-0.389-0.607c-0.116-0.188-0.232-0.376-0.345-0.566c-0.123-0.207-0.242-0.415-0.36-0.625
			c-0.108-0.193-0.216-0.387-0.319-0.582c-0.113-0.213-0.223-0.429-0.331-0.646c-0.098-0.197-0.196-0.395-0.291-0.595
			c-0.105-0.221-0.204-0.445-0.303-0.669c-0.088-0.201-0.177-0.401-0.262-0.605c-0.095-0.229-0.183-0.459-0.273-0.69
			c-0.079-0.204-0.157-0.409-0.232-0.614c-0.084-0.236-0.163-0.474-0.241-0.712c-0.068-0.206-0.138-0.413-0.202-0.621
			c-0.074-0.244-0.141-0.49-0.21-0.736c-0.057-0.208-0.117-0.415-0.17-0.625c-0.065-0.253-0.12-0.511-0.178-0.766
			c-0.046-0.206-0.096-0.411-0.137-0.619c-0.054-0.267-0.098-0.537-0.144-0.806c-0.034-0.202-0.073-0.402-0.103-0.605
			c-0.043-0.285-0.076-0.572-0.11-0.859c-0.023-0.192-0.051-0.382-0.07-0.575c-0.031-0.317-0.052-0.637-0.073-0.956
			c-0.011-0.166-0.028-0.331-0.037-0.498c-0.024-0.487-0.038-0.978-0.038-1.471c0-16.122,13.116-29.239,29.237-29.239h48.02
			c-3.151,2.878-3.539,7.748-0.799,11.085c1.599,1.948,3.917,2.956,6.254,2.956c1.804,0,3.621-0.601,5.124-1.836l14.871-12.205
			h28.951c-3.151,2.879-3.539,7.748-0.799,11.086c1.599,1.948,3.917,2.954,6.254,2.954c1.804,0,3.621-0.601,5.124-1.836
			l14.871-12.205h28.952c-3.151,2.879-3.539,7.748-0.799,11.086c1.597,1.948,3.916,2.954,6.253,2.954
			c1.805,0,3.621-0.601,5.125-1.836l14.87-12.205h28.95c-3.151,2.878-3.539,7.748-0.799,11.085c1.597,1.948,3.916,2.956,6.253,2.956
			c1.805,0,3.621-0.601,5.124-1.836l14.871-12.205h28.953c-3.152,2.878-3.539,7.748-0.799,11.085
			c1.599,1.948,3.916,2.956,6.253,2.956c1.805,0,3.621-0.601,5.124-1.836l14.871-12.205h60.002
			c16.122,0,29.239,13.117,29.239,29.239C495.832,426.092,483.78,438.785,468.579,439.809z"/>
	</g>
</g>
<g>
</g>
<g>
</g>
<g>
</g>
<g>
</g>
<g>
</g>
<g>
</g>
<g>
</g>
<g>
</g>
<g>
</g>
<g>
</g>
<g>
</g>
<g>
</g>
<g>
</g>
<g>
</g>
<g>
</g>
</svg>
